<?xml version="1.0" encoding="UTF-8" standalone="no"?>
<!-- Created with Inkscape (http://www.inkscape.org/) -->

<svg
   xmlns:dc="http://purl.org/dc/elements/1.1/"
   xmlns:cc="http://creativecommons.org/ns#"
   xmlns:rdf="http://www.w3.org/1999/02/22-rdf-syntax-ns#"
   xmlns:svg="http://www.w3.org/2000/svg"
   xmlns="http://www.w3.org/2000/svg"
   xmlns:sodipodi="http://sodipodi.sourceforge.net/DTD/sodipodi-0.dtd"
   xmlns:inkscape="http://www.inkscape.org/namespaces/inkscape"
   width="1052.3622"
   height="744.09448"
   id="svg2"
   version="1.1"
   inkscape:version="0.48.2 r9819"
   sodipodi:docname="Pac-Man cutscene.svg">
  <defs
     id="defs4" />
  <sodipodi:namedview
     id="base"
     pagecolor="#ffffff"
     bordercolor="#666666"
     borderopacity="1.0"
     inkscape:pageopacity="0.0"
     inkscape:pageshadow="2"
     inkscape:zoom="0.24748738"
     inkscape:cx="523.19437"
     inkscape:cy="512.71796"
     inkscape:document-units="px"
     inkscape:current-layer="layer3"
     showgrid="false"
     inkscape:window-width="1024"
     inkscape:window-height="690"
     inkscape:window-x="0"
     inkscape:window-y="24"
     inkscape:window-maximized="1"
     showguides="true"
     inkscape:guide-bbox="true" />
  <metadata
     id="metadata7">
    <rdf:RDF>
      <cc:Work
         rdf:about="">
        <dc:format>image/svg+xml</dc:format>
        <dc:type
           rdf:resource="http://purl.org/dc/dcmitype/StillImage" />
        <dc:title />
      </cc:Work>
    </rdf:RDF>
  </metadata>
  <g
     inkscape:label="Capa 1"
     inkscape:groupmode="layer"
     id="layer1"
     transform="translate(0,-308.2677)">
    <rect
       style="fill:#000000;fill-opacity:1;stroke:#000000;stroke-opacity:1"
       id="rect2985"
       width="1057.1428"
       height="754.28571"
       x="-3.3622169"
       y="306.97964" />
    <path
       style="fill:#ffff00;fill-opacity:1;stroke:#000000;stroke-opacity:1"
       d="m 328.5625,556.65609 c -73.37498,0 -132.84375,59.46878 -132.84375,132.84375 0,73.37498 59.46877,132.875 132.84375,132.875 56.60427,0 104.95508,-35.41344 124.09375,-85.28125 l -105.125,-43.3125 107.75,-44.375 c -17.00514,-53.77471 -67.32046,-92.75 -126.71875,-92.75 z"
       id="path2987"
       inkscape:connector-curvature="0" />
    <rect
       style="fill:#ffff00;fill-opacity:1;stroke:#000000;stroke-opacity:1"
       id="rect3038"
       width="0"
       height="0"
       x="0"
       y="0"
       transform="translate(0,308.2677)" />
  </g>
  <g
     inkscape:groupmode="layer"
     id="layer3"
     inkscape:label="Capa#1">
    <g
       id="g3776"
       transform="matrix(1.4345291,0,0,1.2463745,-313.71524,-122.35135)">
      <path
         id="rect2994"
         d="m 759.17179,414.8747 c -20.39637,0 -36.93688,12.64145 -36.93688,28.23601 0,1.76482 0.22231,3.49099 0.62747,5.16614 l 0,38.69379 -0.62747,-0.35556 0,25.41241 16.89977,-9.76757 14.47357,8.36622 0,-11.00158 13.05132,0 0,11.00158 12.88398,-7.44594 16.54421,9.55841 0,-25.4124 -0.37648,0.20915 0,-39.76048 -0.12549,0 c 0.32941,-1.5163 0.50197,-3.07644 0.50197,-4.66417 l -0.0837,0 c 0.005,-0.1753 0.0209,-0.34672 0.0209,-0.52289 l -0.10458,-0.23007 0.16733,0 C 795.557,427.06021 779.1867,414.8747 759.17176,414.8747 z"
         style="fill:#0000ff;fill-opacity:1;stroke:#000000;stroke-width:0.53775382;stroke-opacity:1"
         inkscape:connector-curvature="0" />
      <rect
         y="447.37961"
         x="737.45447"
         height="10.355741"
         width="11.3734"
         id="rect3207"
         style="fill:#ffd5d5;fill-opacity:1;stroke:#000000;stroke-width:0.40804109;stroke-opacity:1" />
      <rect
         y="447.89478"
         x="768.35321"
         height="10.355741"
         width="11.3734"
         id="rect3207-1"
         style="fill:#ffd5d5;fill-opacity:1;stroke:#000000;stroke-width:0.40804109;stroke-opacity:1" />
      <path
         transform="matrix(0.12489772,0,0,0.08133647,832.0273,461.11118)"
         d="m -794.99006,294.57661 c -1.65079,-35.76709 26.86237,-67.03959 62.62946,-68.69038 35.76708,-1.6508 67.03958,26.86236 68.69038,62.62945"
         sodipodi:t0="0"
         sodipodi:argument="-3.1877139"
         sodipodi:radius="65.729813"
         sodipodi:revolution="0.5"
         sodipodi:expansion="0"
         sodipodi:cy="291.54614"
         sodipodi:cx="-729.33014"
         id="path3027"
         style="fill:none;stroke:#ffd7d7;stroke-width:49.60781479;stroke-linecap:butt;stroke-linejoin:miter;stroke-miterlimit:4;stroke-opacity:1;stroke-dasharray:none"
         sodipodi:type="spiral" />
      <path
         transform="matrix(0.12489772,0,0,0.08133647,868.27302,460.49551)"
         d="m -794.99006,294.57661 c -1.65079,-35.76709 26.86237,-67.03959 62.62946,-68.69038 35.76708,-1.6508 67.03958,26.86236 68.69038,62.62945"
         sodipodi:t0="0"
         sodipodi:argument="-3.1877139"
         sodipodi:radius="65.729813"
         sodipodi:revolution="0.5"
         sodipodi:expansion="0"
         sodipodi:cy="291.54614"
         sodipodi:cx="-729.33014"
         id="path3027-8"
         style="fill:none;stroke:#ffd7d7;stroke-width:49.60781479;stroke-linecap:butt;stroke-linejoin:miter;stroke-miterlimit:4;stroke-opacity:1;stroke-dasharray:none"
         sodipodi:type="spiral" />
      <path
         transform="matrix(0.12489772,0,0,0.08133647,849.83407,460.97358)"
         d="m -794.99006,294.57661 c -1.65079,-35.76709 26.86237,-67.03959 62.62946,-68.69038 35.76708,-1.6508 67.03958,26.86236 68.69038,62.62945"
         sodipodi:t0="0"
         sodipodi:argument="-3.1877139"
         sodipodi:radius="65.729813"
         sodipodi:revolution="0.5"
         sodipodi:expansion="0"
         sodipodi:cy="291.54614"
         sodipodi:cx="-729.33014"
         id="path3027-0"
         style="fill:none;stroke:#ffd7d7;stroke-width:49.60781479;stroke-linecap:butt;stroke-linejoin:miter;stroke-miterlimit:4;stroke-opacity:1;stroke-dasharray:none"
         sodipodi:type="spiral" />
    </g>
  </g>
  <g
     inkscape:groupmode="layer"
     id="layer2"
     inkscape:label="Capa" />
</svg>
